<?xml version="1.0" standalone="no"?><!DOCTYPE svg PUBLIC "-//W3C//DTD SVG 1.1//EN" "http://www.w3.org/Graphics/SVG/1.1/DTD/svg11.dtd"><svg t="1574169527319" class="icon" viewBox="0 0 1024 1024" version="1.1" xmlns="http://www.w3.org/2000/svg" p-id="5980" xmlns:xlink="http://www.w3.org/1999/xlink" width="200" height="200"><defs><style type="text/css"></style></defs><path d="M0 512c0 282.7776 229.2224 512 512 512s512-229.2224 512-512S794.7776 0 512 0 0 229.2224 0 512z m42.752 0C42.752 252.7744 252.7744 42.752 512 42.752S981.504 252.7744 981.504 512a465.92 465.92 0 0 1-94.0032 281.4976 385.536 385.536 0 0 0-269.824-288.2048 212.992 212.992 0 0 0 107.7248-185.2928c0-117.76-95.6416-213.248-213.4016-213.248a213.248 213.248 0 0 0-105.6768 398.5408 385.0752 385.0752 0 0 0-269.7728 288.2048A467.0976 467.0976 0 0 1 42.752 512z m812.6976 320c-85.8624 91.904-208.0256 149.504-343.4496 149.504s-257.7408-57.6-343.2448-149.504h4.5056c20.992-168.4992 164.608-298.7008 338.7392-298.7008s317.4912 130.2016 338.5856 298.7008h4.864z m-514.2016-512a170.8032 170.8032 0 0 1 341.504 0 170.8032 170.8032 0 0 1-341.504 0z" p-id="5981"></path></svg>